<svg xmlns="http://www.w3.org/2000/svg" width="24" height="24" fill="none" viewBox="0 0 24 24">
    <path fill="#2D3142" fill-rule="evenodd" d="M19.402 16.898V15.05H8.798c-.059 0-.11-.022-.154-.066-.044-.044-.066-.095-.066-.154l.044-.132.814-1.496h6.82c.337 0 .649-.088.935-.264.286-.176.51-.403.671-.682l3.256-5.94c.088-.117.132-.256.132-.418 0-.264-.088-.487-.264-.67-.176-.184-.389-.276-.638-.276H6.774l-.858-1.804H2.902v1.804H4.75l3.3 6.952-1.232 2.288c-.147.294-.22.58-.22.858 0 .5.176.932.528 1.298.352.367.777.55 1.276.55h11zm-1.804 4.554c.499 0 .924-.176 1.276-.528.352-.352.528-.777.528-1.276 0-.498-.176-.93-.528-1.298-.352-.366-.777-.55-1.276-.55s-.931.184-1.298.55c-.367.367-.55.8-.55 1.298 0 .5.183.924.55 1.276.367.352.8.528 1.298.528zm-9.196 0c.499 0 .931-.176 1.298-.528.367-.352.55-.777.55-1.276 0-.498-.183-.93-.55-1.298-.367-.366-.8-.55-1.298-.55-.499 0-.924.184-1.276.55-.352.367-.528.8-.528 1.298 0 .5.176.924.528 1.276.352.352.777.528 1.276.528z" clip-rule="evenodd"/>
</svg>
